<svg width="12" height="12" viewBox="0 0 12 12" fill="none" xmlns="http://www.w3.org/2000/svg">
<path fill-rule="evenodd" clip-rule="evenodd" d="M5.25154 0.0618746C4.9192 -0.0494269 4.55506 -0.00926453 4.25467 0.171821L1.78261 1.66207C1.42116 1.87997 1.2 2.27242 1.2 2.69593V10.7943H0.6C0.268629 10.7943 0 11.0642 0 11.3972C0 11.7301 0.268629 12 0.6 12H11.4C11.7314 12 12 11.7301 12 11.3972C12 11.0642 11.7314 10.7943 11.4 10.7943H10.8V2.78911C10.8 2.27015 10.4695 1.80942 9.97948 1.64531L5.25154 0.0618746ZM4.2 1.61082L2.4 2.69593V10.7943H4.2V1.61082Z" fill="#202020"/>
</svg>
