<svg width="14" height="12" viewBox="0 0 14 12" fill="none" xmlns="http://www.w3.org/2000/svg">
<path d="M4.9 6.33333C4.9 5.22876 5.8402 4.33333 7 4.33333C8.1598 4.33333 9.1 5.22876 9.1 6.33333C9.1 7.4379 8.1598 8.33333 7 8.33333C5.8402 8.33333 4.9 7.4379 4.9 6.33333Z" fill="#202020"/>
<path fill-rule="evenodd" clip-rule="evenodd" d="M5.04497 0C4.7665 0 4.49943 0.105357 4.30251 0.292893L3.21005 1.33333H1.4C0.626801 1.33333 0 1.93029 0 2.66667V10.6667C0 11.403 0.626802 12 1.4 12H12.6C13.3732 12 14 11.403 14 10.6667V2.66667C14 1.93029 13.3732 1.33333 12.6 1.33333H10.7899L9.69749 0.292893C9.50057 0.105357 9.2335 0 8.95503 0H5.04497ZM7 3C5.067 3 3.5 4.49238 3.5 6.33333C3.5 8.17428 5.067 9.66667 7 9.66667C8.933 9.66667 10.5 8.17428 10.5 6.33333C10.5 4.49238 8.933 3 7 3Z" fill="#202020"/>
</svg>
