<svg width="13" height="8" viewBox="0 0 13 8" fill="none" xmlns="http://www.w3.org/2000/svg">
<path d="M3.38625 3.8069C4.19136 2.75439 5.39231 2.08696 6.73257 2.08696C9.15555 2.08696 11.1198 4.26714 11.1198 6.95652C11.1198 7.53282 11.5407 8 12.0599 8C12.5791 8 13 7.53282 13 6.95652C13 3.11454 10.194 0 6.73257 0C4.88751 0 3.22964 0.884595 2.08313 2.29184L1.8661 0.925691C1.77594 0.358149 1.28835 -0.0208089 0.777023 0.079264C0.2657 0.179337 -0.0757204 0.720546 0.0144396 1.28809L0.667437 5.39859C0.710733 5.67113 0.849799 5.91342 1.05404 6.07216C1.30677 6.26858 1.63939 6.31207 1.92252 6.21253L5.45985 5.52022C5.97117 5.42015 6.31259 4.87894 6.22243 4.3114C6.13227 3.74386 5.64467 3.3649 5.13335 3.46497L3.38625 3.8069Z" fill="#202020"/>
</svg>
