<svg width="17" height="17" viewBox="0 0 17 17" fill="none" xmlns="http://www.w3.org/2000/svg">
<path fill-rule="evenodd" clip-rule="evenodd" d="M0 8.5C0 3.80558 3.80558 0 8.5 0C13.1944 0 17 3.80558 17 8.5C17 13.1944 13.1944 17 8.5 17C3.80558 17 0 13.1944 0 8.5ZM9.35 12.75C9.35 13.2194 8.96944 13.6 8.5 13.6C8.03056 13.6 7.65 13.2194 7.65 12.75C7.65 12.2806 8.03056 11.9 8.5 11.9C8.96944 11.9 9.35 12.2806 9.35 12.75ZM7.11875 6.90625C7.11875 6.14341 7.73716 5.525 8.5 5.525C9.26284 5.525 9.88125 6.14341 9.88125 6.90625C9.88125 7.48621 9.52353 7.98468 9.01353 8.18913C8.43991 8.41909 7.65 9.0075 7.65 9.9875V10.2C7.65 10.6694 8.03056 11.05 8.5 11.05C8.96944 11.05 9.35 10.6694 9.35 10.2C9.35 9.96694 9.40313 9.86446 9.6461 9.76706C10.7788 9.31296 11.5813 8.20434 11.5813 6.90625C11.5813 5.20452 10.2017 3.825 8.5 3.825C6.79827 3.825 5.41875 5.20452 5.41875 6.90625C5.41875 7.37569 5.79931 7.75625 6.26875 7.75625C6.73819 7.75625 7.11875 7.37569 7.11875 6.90625Z" fill="#202020"/>
</svg>
