<svg width="18" height="17" viewBox="0 0 18 17" fill="none" xmlns="http://www.w3.org/2000/svg">
<path fill-rule="evenodd" clip-rule="evenodd" d="M9 0C4.30558 0 0.5 3.80558 0.5 8.5C0.5 13.1944 4.30558 17 9 17C13.6944 17 17.5 13.1944 17.5 8.5C17.5 3.80558 13.6944 0 9 0ZM13.2072 6.62624C13.5391 6.29429 13.5391 5.7561 13.2072 5.42416C12.8752 5.09221 12.337 5.09221 12.0051 5.42416L7.79779 9.63144L5.99467 7.82832C5.66272 7.49637 5.12453 7.49637 4.79259 7.82832C4.46064 8.16026 4.46064 8.69845 4.79259 9.0304L7.13665 11.3745C7.50179 11.7396 8.0938 11.7396 8.45894 11.3745L13.2072 6.62624Z" fill="#202020"/>
</svg>
