<svg width="13" height="12" viewBox="0 0 13 12" fill="none" xmlns="http://www.w3.org/2000/svg">
<path d="M0 1.33333C0 0.596954 0.58203 0 1.3 0H11.7C12.418 0 13 0.596954 13 1.33333V3.33333H0V1.33333Z" fill="#202020"/>
<path fill-rule="evenodd" clip-rule="evenodd" d="M0.65 4.66667H12.35V10.6667C12.35 11.403 11.768 12 11.05 12H1.95C1.23203 12 0.65 11.403 0.65 10.6667V4.66667ZM5.2 6.66667C4.84101 6.66667 4.55 6.96514 4.55 7.33333C4.55 7.70152 4.84101 8 5.2 8H7.8C8.15898 8 8.45 7.70152 8.45 7.33333C8.45 6.96514 8.15898 6.66667 7.8 6.66667H5.2Z" fill="#202020"/>
</svg>
