<svg width="12" height="12" viewBox="0 0 12 12" fill="none" xmlns="http://www.w3.org/2000/svg">
<path fill-rule="evenodd" clip-rule="evenodd" d="M8.87756 0.378816C8.37247 -0.126272 7.55356 -0.126272 7.04847 0.378816L0.378816 7.04847C0.136265 7.29103 0 7.62 0 7.96302V11.3469C0 11.7076 0.292446 12 0.653146 12L10.9959 11.9996C11.3531 11.9996 11.6426 11.7101 11.6426 11.3529C11.6426 10.9958 11.3531 10.7063 10.9959 10.7063H5.86645L11.6212 4.95153C12.1263 4.44644 12.1263 3.62753 11.6212 3.12244L8.87756 0.378816ZM4.03737 10.7063L10.7066 4.03698L7.96302 1.29336L1.29336 7.96302V10.7066C2.20802 10.7066 3.12272 10.7063 4.03737 10.7063Z" fill="#202020"/>
</svg>
