<svg width="13" height="12" viewBox="0 0 13 12" fill="none" xmlns="http://www.w3.org/2000/svg">
<path d="M0 1.41176C0 0.632069 0.58203 0 1.3 0H9.75C10.468 0 11.05 0.632069 11.05 1.41176H8.45C7.37304 1.41176 6.5 2.35987 6.5 3.52941V11.2941H1.3C0.58203 11.2941 0 10.662 0 9.88235V1.41176Z" fill="#202020"/>
<path d="M9.1 2.82353C8.38203 2.82353 7.8 3.4556 7.8 4.23529V10.5882C7.8 11.3679 8.38203 12 9.1 12H11.7C12.418 12 13 11.3679 13 10.5882V4.23529C13 3.4556 12.418 2.82353 11.7 2.82353H9.1Z" fill="#202020"/>
</svg>
