<svg width="11" height="12" viewBox="0 0 11 12" fill="none" xmlns="http://www.w3.org/2000/svg">
<path fill-rule="evenodd" clip-rule="evenodd" d="M6.28176 0.205736C5.79801 -0.0685788 5.20199 -0.0685786 4.71824 0.205736L0.781763 2.43792C0.298006 2.71223 0 3.21919 0 3.76782V8.23218C0 8.78081 0.298006 9.28777 0.781763 9.56208L4.71824 11.7943C5.20199 12.0686 5.79801 12.0686 6.28176 11.7943L10.2182 9.56208C10.702 9.28777 11 8.78081 11 8.23218V3.76782C11 3.21919 10.702 2.71223 10.2182 2.43792L6.28176 0.205736ZM5.49998 4.15724C4.46376 4.15724 3.62375 4.98227 3.62375 6C3.62375 7.01773 4.46376 7.84276 5.49998 7.84276C6.53619 7.84276 7.37621 7.01773 7.37621 6C7.37621 4.98227 6.53619 4.15724 5.49998 4.15724Z" fill="#202020"/>
</svg>
