<svg width="12" height="12" viewBox="0 0 12 12" fill="none" xmlns="http://www.w3.org/2000/svg">
<path fill-rule="evenodd" clip-rule="evenodd" d="M0 6C0 2.68629 2.68629 0 6 0C9.31371 0 12 2.68629 12 6C12 9.31371 9.31371 12 6 12C2.68629 12 0 9.31371 0 6ZM3 6C3 5.66863 3.26863 5.4 3.6 5.4H5.4V3.6C5.4 3.26863 5.66863 3 6 3C6.33137 3 6.6 3.26863 6.6 3.6V5.4H8.4C8.73137 5.4 9 5.66863 9 6C9 6.33137 8.73137 6.6 8.4 6.6H6.6V8.4C6.6 8.73137 6.33137 9 6 9C5.66863 9 5.4 8.73137 5.4 8.4V6.6H3.6C3.26863 6.6 3 6.33137 3 6Z" fill="#202020"/>
</svg>
